# xmcd
#
# Track frame offsets:
# 150
# 11907
# 22862
# 36100
# 47502
# 61532
# 78432
# 93250
# 106227
# 117570
#
# Disc length: 1763 seconds
#
#
# Revision: 9
# Processed by: cddbd v1.5.2PL0 Copyright (c) Steve Scherf et al.
# Submitted via: FreeRIP 2.951 
#
DISCID=6d06e10a
DTITLE=George Jones - Super Hits
DYEAR=1987
DGENRE=Country
TTITLE0=White Lightnin'
TTITLE1=Why Baby Why
TTITLE2=The Window Up Above
TTITLE3=A Picture Of Me (Without You)
TTITLE4=The Grand Tour
TTITLE5=Bartender's Blues
TTITLE6=He Stopped Loving Her Today
TTITLE7=Tennessee Whiskey
TTITLE8=The One I Loved Back Then (The Corvette Song)
TTITLE9=Who's Gonna Fill Their Shoes
EXTD=
EXTT0=
EXTT1=
EXTT2=
EXTT3=
EXTT4=
EXTT5=
EXTT6=
EXTT7=
EXTT8=
EXTT9=
PLAYORDER=
